<?xml version="1.0" standalone="no"?><!DOCTYPE svg PUBLIC "-//W3C//DTD SVG 1.1//EN" "http://www.w3.org/Graphics/SVG/1.1/DTD/svg11.dtd"><svg t="1641185951679" class="icon" viewBox="0 0 1024 1024" version="1.1" xmlns="http://www.w3.org/2000/svg" p-id="6928" width="32" height="32" xmlns:xlink="http://www.w3.org/1999/xlink"><defs><style type="text/css"></style></defs><path d="M526.78880522 465.76944925c-3.97682157-3.97682157-9.32067555-5.96523235-14.54025387-5.96523236-5.34385398 0-10.5634323 1.98841078-14.54025387 5.96523236L197.20971757 766.14375348c-7.95364315 7.95364315-7.95364315 20.87831325 0 28.83195639 7.95364315 7.95364315 20.87831325 7.95364315 28.83195638 0l286.2068774-286.20687739 286.33115307 286.33115307c7.95364315 7.95364315 20.87831325 7.95364315 28.83195638 0 7.95364315-7.95364315 7.95364315-20.87831325 0-28.8319564L526.78880522 465.76944925z m0 0" p-id="6929" fill="#bfbfbf"></path><path d="M197.0854419 558.35482643c7.95364315 7.95364315 20.87831325 7.95364315 28.83195638 0L512.12427568 272.14794903l286.33115307 286.33115307c7.95364315 7.95364315 20.87831325 7.95364315 28.83195637 0 7.95364315-7.95364315 7.95364315-20.87831325 0-28.83195638L526.78880522 229.02429013c-3.97682157-3.97682157-9.32067555-5.96523235-14.54025387-5.96523235-5.34385398 0-10.5634323 1.98841078-14.54025387 5.96523235L197.20971757 529.52287005c-7.95364315 7.82936747-7.95364315 20.87831325-0.12427567 28.83195638z m0 0" p-id="6930" fill="#bfbfbf"></path></svg>